HIERARCHY
ROOT Hips
{
	OFFSET 0.000000 0.000000 0.000000
	CHANNELS 6 Xposition Yposition Zposition Xrotation Yrotation Zrotation
	JOINT LeftUpLeg_virtual
	{
		OFFSET 0.000000 0.000000 0.000000
		CHANNELS 3 Xrotation Yrotation Zrotation
		JOINT LeftUpLeg
		{
			OFFSET 13.026900 -6.336304 -1.092800
			CHANNELS 3 Xrotation Yrotation Zrotation
			JOINT LeftLeg
			{
				OFFSET 0.524474 -46.096886 9.782700
				CHANNELS 3 Xrotation Yrotation Zrotation
				JOINT LeftFoot
				{
					OFFSET -0.524474 -53.427422 -12.948200
					CHANNELS 3 Xrotation Yrotation Zrotation
					JOINT LeftToeBase
					{
						OFFSET 0.192200 -14.009700 16.364100
						CHANNELS 3 Xrotation Yrotation Zrotation
						JOINT LeftToe_End
						{
							OFFSET -1.784700 -0.561700 9.474800
							CHANNELS 3 Xrotation Yrotation Zrotation
							End Site
							{
								OFFSET 0 0 0
							}
						}
					}
				}
			}
		}
	}
	JOINT RightUpLeg_virtual
	{
		OFFSET 0.000000 0.000000 0.000000
		CHANNELS 3 Xrotation Yrotation Zrotation
		JOINT RightUpLeg
		{
			OFFSET -12.883000 -6.336304 -1.092800
			CHANNELS 3 Xrotation Yrotation Zrotation
			JOINT RightLeg
			{
				OFFSET -0.524587 -46.096825 9.782800
				CHANNELS 3 Xrotation Yrotation Zrotation
				JOINT RightFoot
				{
					OFFSET 0.524587 -53.427383 -12.948300
					CHANNELS 3 Xrotation Yrotation Zrotation
					JOINT RightToeBase
					{
						OFFSET -0.192200 -14.009700 16.364100
						CHANNELS 3 Xrotation Yrotation Zrotation
						JOINT RightToe_End
						{
							OFFSET 1.784700 -0.561700 9.474800
							CHANNELS 3 Xrotation Yrotation Zrotation
							End Site
							{
								OFFSET 0 0 0
							}
						}
					}
				}
			}
		}
	}
	JOINT Spine_virtual
	{
		OFFSET 0.000000 0.000000 0.000000
		CHANNELS 3 Xrotation Yrotation Zrotation
		JOINT Spine
		{
			OFFSET 0.072000 7.257294 -0.789700
			CHANNELS 3 Xrotation Yrotation Zrotation
			JOINT Spine1
			{
				OFFSET 0.000000 12.508769 -0.658067
				CHANNELS 3 Xrotation Yrotation Zrotation
				JOINT Spine1_split
				{
					OFFSET 0.000000 12.508769 -0.658067
					CHANNELS 3 Xrotation Yrotation Zrotation
					JOINT Spine2
					{
						OFFSET 0.000000 12.508769 -0.658067
						CHANNELS 3 Xrotation Yrotation Zrotation
						JOINT Neck_virtual
						{
							OFFSET 0.000000 0.000000 0.000000
							CHANNELS 3 Xrotation Yrotation Zrotation
							JOINT Neck
							{
								OFFSET 0.000000 14.033295 7.520400
								CHANNELS 3 Xrotation Yrotation Zrotation
								JOINT Head
								{
									OFFSET 0.000000 8.198502 5.703100
									CHANNELS 3 Xrotation Yrotation Zrotation
									JOINT HeadTop_End
									{
										OFFSET 0.000000 17.760803 13.332701
										CHANNELS 3 Xrotation Yrotation Zrotation
										End Site
										{
											OFFSET 0 0 0
										}
									}
								}
							}
						}
						JOINT LeftShoulder_virtual
						{
							OFFSET 0.000000 0.000000 0.000000
							CHANNELS 3 Xrotation Yrotation Zrotation
							JOINT LeftShoulder
							{
								OFFSET 6.292450 5.785301 -0.669000
								CHANNELS 3 Xrotation Yrotation Zrotation
								JOINT LeftShoulder_split
								{
									OFFSET 6.292450 5.785301 -0.669000
									CHANNELS 3 Xrotation Yrotation Zrotation
									JOINT LeftArm
									{
										OFFSET 13.907140 -6.093903 1.965100
										CHANNELS 3 Xrotation Yrotation Zrotation
										JOINT LeftForeArm
										{
											OFFSET 34.140198 0.000000 0.000000
											CHANNELS 3 Xrotation Yrotation Zrotation
											JOINT LeftHand
											{
												OFFSET 40.960209 0.000000 0.000000
												CHANNELS 3 Xrotation Yrotation Zrotation
												End Site
												{
													OFFSET 0 0 0
												}
											}
										}
									}
								}
							}
						}
						JOINT RightShoulder_virtual
						{
							OFFSET 0.000000 0.000000 0.000000
							CHANNELS 3 Xrotation Yrotation Zrotation
							JOINT RightShoulder
							{
								OFFSET -6.292450 5.785301 -0.669000
								CHANNELS 3 Xrotation Yrotation Zrotation
								JOINT RightShoulder_split
								{
									OFFSET -6.292450 5.785301 -0.669000
									CHANNELS 3 Xrotation Yrotation Zrotation
									JOINT RightArm
									{
										OFFSET -13.907140 -6.093903 1.965100
										CHANNELS 3 Xrotation Yrotation Zrotation
										JOINT RightForeArm
										{
											OFFSET -34.140198 0.000000 0.000000
											CHANNELS 3 Xrotation Yrotation Zrotation
											JOINT RightHand
											{
												OFFSET -40.960209 0.000000 0.000000
												CHANNELS 3 Xrotation Yrotation Zrotation
												End Site
												{
													OFFSET 0 0 0
												}
											}
										}
									}
								}
							}
						}
					}
				}
			}
		}
	}
}
MOTION
Frames: 7
Frame Time: 0.03333333
3.388866 100.355026 31.966890 0.000000 0.000000 0.000000 5.555958 -52.517195 5.814104 -2.716402 14.001973 -6.280344 41.571796 -8.345220 -7.809016 -33.473323 -8.455256 15.802481 -0.892932 -5.671180 0.758442 0.000000 0.000000 0.000000 5.555958 -52.517195 5.814104 -52.322630 -2.453978 0.884576 15.519940 7.475612 3.746501 -0.643039 3.940722 21.209947 1.914871 -4.655927 7.674923 0.000000 0.000000 0.000000 5.555958 -52.517195 5.814104 11.693882 -6.039600 6.301371 6.897511 -6.951601 1.878612 0.000000 0.000000 0.000000 0.000000 0.000000 0.000000 -4.209820 -6.549582 2.113406 6.754096 41.480442 -10.680608 1.712230 25.842653 -7.475038 0.000000 0.000000 0.000000 -4.209820 -6.549582 2.113406 1.270524 -5.316216 -0.766513 0.000000 0.000000 0.000000 -4.829684 -2.597543 -36.315084 -0.000766 -23.380835 -2.655204 0.000000 0.000000 0.000000 -4.209820 -6.549582 2.113406 10.009425 -5.246982 3.894581 0.000000 0.000000 0.000000 5.281051 -0.456755 74.450367 -9.017196 16.459812 6.074807 0.000000 0.000000 0.000000 
5.570743 101.529747 29.789745 0.000000 0.000000 0.000000 6.083708 -54.085427 6.901939 -2.115794 13.123672 -7.792855 37.342519 -6.953047 -7.386521 -36.592687 -6.769960 12.304450 5.249275 -11.123818 3.177353 0.000000 0.000000 0.000000 6.083708 -54.085427 6.901939 -52.873994 -1.083409 0.234637 19.115439 8.123847 2.102930 5.029672 5.108317 21.475373 3.856332 -3.668704 7.269364 0.000000 0.000000 0.000000 6.083708 -54.085427 6.901939 11.523546 -5.776553 5.824574 6.628109 -6.390925 1.563488 0.000000 0.000000 0.000000 0.000000 0.000000 0.000000 -4.464400 -5.939058 1.913256 4.365868 41.687438 -10.666463 3.702049 25.152701 -8.050836 0.000000 0.000000 0.000000 -4.464400 -5.939058 1.913256 1.126229 -5.641833 -0.722996 0.000000 0.000000 0.000000 -9.346834 -1.665543 -36.045312 -0.000755 -28.424339 -2.537049 0.000000 0.000000 0.000000 -4.464400 -5.939058 1.913256 10.045359 -5.469087 3.772903 0.000000 0.000000 0.000000 4.495815 3.336449 70.727633 -5.588872 20.793985 8.779309 0.000000 0.000000 0.000000 
7.147222 102.765480 27.592531 0.000000 0.000000 0.000000 4.912713 -54.462740 5.725721 -2.567295 12.206437 -7.912798 36.206140 -6.353107 -6.057236 -37.274378 -6.412064 10.409475 9.534400 -13.452075 5.168002 0.000000 0.000000 0.000000 4.912713 -54.462740 5.725721 -52.163934 0.509784 -0.655933 23.670212 7.678178 0.465711 8.873127 5.330545 19.902889 6.015218 -2.428033 6.624642 0.000000 0.000000 0.000000 4.912713 -54.462740 5.725721 11.599861 -5.647974 5.558831 6.834364 -6.010246 1.594519 0.000000 0.000000 0.000000 0.000000 0.000000 0.000000 -4.251022 -5.571458 2.017434 3.703596 41.886958 -11.064484 4.937528 24.429751 -7.830162 0.000000 0.000000 0.000000 -4.251022 -5.571458 2.017434 0.973884 -5.732993 -0.462230 0.000000 0.000000 0.000000 -11.896128 -1.914701 -36.295789 -0.001012 -33.209039 -3.280008 0.000000 0.000000 0.000000 -4.251022 -5.571458 2.017434 10.043564 -5.196825 4.149172 0.000000 0.000000 0.000000 3.853506 6.445277 65.962518 -1.857280 25.215407 11.159683 0.000000 0.000000 0.000000 
8.272637 103.953453 25.657488 0.000000 0.000000 0.000000 4.602830 -55.146298 5.365563 -4.340108 12.041133 -7.151745 36.473330 -6.246237 -5.582731 -34.985796 -5.507550 7.950294 9.239190 -14.203529 6.995128 0.000000 0.000000 0.000000 4.602830 -55.146298 5.365563 -52.067369 0.304219 -2.700002 29.125542 7.342388 0.020166 10.376388 5.129421 17.862657 4.508774 -2.478149 6.409594 0.000000 0.000000 0.000000 4.602830 -55.146298 5.365563 11.341369 -5.368444 5.267189 6.364874 -5.355542 1.539467 0.000000 0.000000 0.000000 0.000000 0.000000 0.000000 -4.708430 -4.918501 2.090040 6.955233 41.759227 -11.922308 5.203319 23.619168 -8.061735 0.000000 0.000000 0.000000 -4.708430 -4.918501 2.090040 0.810791 -5.278876 -1.330829 0.000000 0.000000 0.000000 -12.283259 -3.393810 -36.663793 -0.001105 -36.423234 -3.701647 0.000000 0.000000 0.000000 -4.708430 -4.918501 2.090040 9.944002 -4.639675 4.134229 0.000000 0.000000 0.000000 4.256460 7.934848 61.439963 1.512771 29.803585 11.908869 0.000000 0.000000 0.000000 
8.991123 105.049568 23.971012 0.000000 0.000000 0.000000 4.976135 -57.174889 6.453269 -5.079370 11.689293 -7.713398 35.389232 -4.841411 -5.441982 -33.221118 -4.210345 6.361896 8.945611 -14.021403 7.522773 0.000000 0.000000 0.000000 4.976135 -57.174889 6.453269 -51.776686 -0.205638 -5.200775 33.636435 6.858612 -0.308044 11.216052 4.748196 16.157881 5.121165 -1.165714 5.369246 0.000000 0.000000 0.000000 4.976135 -57.174889 6.453269 10.986367 -4.924592 4.659228 5.715299 -4.378871 0.965827 0.000000 0.000000 0.000000 0.000000 0.000000 0.000000 -5.337932 -3.850143 1.715829 11.381834 41.444727 -13.189664 4.144535 22.789471 -7.860235 0.000000 0.000000 0.000000 -5.337932 -3.850143 1.715829 0.649378 -3.922827 -2.267243 0.000000 0.000000 0.000000 -11.670480 -4.528056 -37.327260 -0.001222 -40.012635 -3.679627 0.000000 0.000000 0.000000 -5.337932 -3.850143 1.715829 9.800545 -3.899939 4.044693 0.000000 0.000000 0.000000 5.233441 8.267145 57.714538 3.851534 34.591152 11.581796 0.000000 0.000000 0.000000 
9.500007 105.980461 22.025280 0.000000 0.000000 0.000000 5.669933 -58.958760 7.602223 -6.252050 10.807338 -8.338210 34.756346 -2.969186 -4.554673 -31.907382 -2.660575 4.750064 8.652251 -13.907696 7.580005 0.000000 0.000000 0.000000 5.669933 -58.958760 7.602223 -51.197858 -0.727842 -7.688233 36.970096 5.594663 -0.825207 11.555213 3.730290 14.275246 5.377836 -0.573070 4.893468 0.000000 0.000000 0.000000 5.669933 -58.958760 7.602223 10.774343 -4.525951 4.129767 5.337471 -3.544726 0.429945 0.000000 0.000000 0.000000 0.000000 0.000000 0.000000 -5.700335 -2.928856 1.350662 13.206360 41.255446 -13.120935 4.088410 22.422273 -8.543185 0.000000 0.000000 0.000000 -5.700335 -2.928856 1.350662 0.544373 -2.362112 -2.400627 0.000000 0.000000 0.000000 -10.982219 -4.488740 -38.675553 -0.001350 -44.255436 -3.886749 0.000000 0.000000 0.000000 -5.700335 -2.928856 1.350662 9.677426 -3.272188 3.969031 0.000000 0.000000 0.000000 5.449427 8.280965 55.071966 4.673691 38.195354 10.767669 0.000000 0.000000 0.000000 
9.740579 107.030907 19.843914 0.000000 0.000000 0.000000 5.806239 -59.784017 7.717492 -7.101749 10.188019 -8.163626 34.047889 -1.625683 -3.286511 -30.616569 -1.560861 3.162855 8.397228 -14.048321 7.274416 0.000000 0.000000 0.000000 5.806239 -59.784017 7.717492 -49.595513 -1.039072 -10.033546 39.235557 5.038469 -1.400269 11.079988 3.073976 12.392223 5.279595 -0.530056 4.810787 0.000000 0.000000 0.000000 5.806239 -59.784017 7.717492 10.701961 -4.235519 3.756958 5.227479 -2.956963 0.157321 0.000000 0.000000 0.000000 0.000000 0.000000 0.000000 -5.801922 -2.299825 1.196082 13.626092 41.160025 -12.393159 4.271754 22.294045 -8.879056 0.000000 0.000000 0.000000 -5.801922 -2.299825 1.196082 0.469068 -1.001021 -2.712703 0.000000 0.000000 0.000000 -10.071861 -4.127508 -39.816519 -0.001410 -47.928540 -3.876546 0.000000 0.000000 0.000000 -5.801922 -2.299825 1.196082 9.564407 -2.699115 3.890790 0.000000 0.000000 0.000000 5.053589 8.451454 53.039714 5.188169 40.118615 9.540871 0.000000 0.000000 0.000000 
